<?xml version="1.0" encoding="utf-8"?>
<!-- Generator: Adobe Illustrator 16.0.0, SVG Export Plug-In . SVG Version: 6.00 Build 0)  -->
<!DOCTYPE svg PUBLIC "-//W3C//DTD SVG 1.1//EN" "http://www.w3.org/Graphics/SVG/1.1/DTD/svg11.dtd">
<svg version="1.1" xmlns="http://www.w3.org/2000/svg" xmlns:xlink="http://www.w3.org/1999/xlink" x="0px" y="0px" width="1200px"
	 height="300px" viewBox="0 0 1200 300" enable-background="new 0 0 1200 300" xml:space="preserve">
<g id="Layer_2">
	<rect x="0" fill="#CE97C4" width="1200" height="300"/>
</g>
<g id="Layer_1">
	<text transform="matrix(1 0 0 1 521.6064 250.9531)" fill="#FFFFFF" font-family="'OpenSans-Regular'" font-size="19.0898">STEPHANIE LOGUIDICE</text>
	<path fill="#FFFFFF" d="M638.594,80.592c0,0,12.179-0.583,13.934-10.184c0,0,2.846-8.576-10.23-13.734c0,0-16.48-4.065-21.8,11.494
		c0,0-5.252,13.474,6.825,24.7c0,0,11.619,10.488,28.531,3.732c0,0,16.907-7.875,17.091-21.535c0,0,4.505-22.175-13.278-34.282
		c0,0-20.975-16.103-44.398-3.242c0,0-38.116,21.802-17.017,68.271c0,0,11.304,27.127,52.181,32.317c0,0-34.347,9.128-58.664-23.752
		c0,0-22.653-31.674-0.699-67.653c0,0,17.983-29.579,52.617-23.82c0,0,24.58,2.668,36.029,29.149c0,0,10.797,27.63-9.698,45.059
		c0,0-20.699,17.904-44.587,3.854c0,0-12.328-5.963-13.912-23.136c0,0-1.608-23.06,20.682-27.368c0,0,16.678-3.661,24.084,11.373
		c0,0,3.786,8.656-1.597,14.609C654.687,76.444,649.221,84.547,638.594,80.592z"/>
	<path fill="#FFFFFF" d="M678.346,169.195c0,0-11.514,4.012-10.473,13.717c0,0-0.297,9.031,13.707,10.268
		c0,0,16.956-0.777,17.643-17.206c0,0,1.215-14.409-13.551-21.749c0,0-14.118-6.761-28.418,4.516c0,0-13.979,12.348-10.28,25.498
		c0,0,1.971,22.543,22.458,29.107c0,0,24.682,9.49,43.494-9.486c0,0,30.365-31.719-3.049-70.294c0,0-18.535-22.806-59.205-16.187
		c0,0,30.347-18.496,62.992,6.135c0,0,30.708,23.946,19.862,64.676c0,0-8.854,33.465-43.698,37.768c0,0-24.326,4.414-42.818-17.73
		c0,0-18.191-23.432-3.482-45.959c0,0,14.77-23.041,41.662-16.345c0,0,13.512,2.222,19.903,18.239c0,0,8.084,21.656-12.069,32.11
		c0,0-14.953,8.242-26.32-4.072c0,0-6.086-7.228-2.613-14.463C664.09,177.736,667.032,168.416,678.346,169.195z"/>
	<path fill="#FFFFFF" d="M571.885,163.655c0,0-1.361-12.116-11.054-13.253c0,0-8.74-2.291-13.051,11.09c0,0-3,16.707,12.867,21.02
		c0,0,13.782,4.377,24.211-8.394c0,0,9.723-12.269,1.897-28.712c0,0-8.941-16.369-22.585-15.677c0,0-22.418-3.076-33.361,15.447
		c0,0-14.727,21.963-0.392,44.515c0,0,24.199,36.642,69.221,12.608c0,0,26.348-13.018,28.908-54.143
		c0,0,11.309,33.691-19.946,60.065c0,0-30.157,24.636-67.469,5.032c0,0-30.669-16.053-27.141-50.984c0,0,1.087-24.7,26.782-37.822
		c0,0,26.88-12.544,45.587,6.792c0,0,19.193,19.51,6.702,44.249c0,0-5.162,12.684-22.197,15.365c0,0-22.909,3.082-28.637-18.887
		c0,0-4.722-16.408,9.807-24.764c0,0,8.396-4.332,14.681,0.658C566.715,147.861,575.151,152.797,571.885,163.655z"/>
</g>
</svg>
